<svg xmlns="http://www.w3.org/2000/svg" clip-rule="evenodd" fill-rule="evenodd" stroke-linejoin="round" stroke-miterlimit="2" viewBox="145 48.27 270 303.46">
	<g fill-rule="nonzero">
		<path d="M414.986 137.488c-.003-5.103-1.094-9.611-3.3-13.48-2.168-3.806-5.414-6.995-9.77-9.517-35.944-20.725-71.922-41.388-107.856-62.135-9.687-5.592-19.08-5.388-28.695.284-14.306 8.438-85.937 49.476-107.281 61.84-8.792 5.088-13.069 12.876-13.07 22.999-.014 41.68 0 83.36-.014 125.042.002 4.99 1.047 9.411 3.156 13.222 2.169 3.92 5.46 7.198 9.915 9.776 21.347 12.363 92.987 53.399 107.29 61.838 9.62 5.676 19.012 5.88 28.703.285 35.933-20.748 71.915-41.41 107.865-62.135 4.454-2.578 7.746-5.857 9.915-9.774 2.107-3.812 3.153-8.233 3.156-13.223 0 0 0-83.34-.014-125.022z" fill="#9b4993"/>
		<path d="m280.412 199.593-132.256 76.15c2.169 3.92 5.46 7.198 9.915 9.776 21.347 12.363 92.987 53.399 107.29 61.838 9.62 5.676 19.012 5.88 28.703.285 35.933-20.748 71.915-41.41 107.865-62.135 4.454-2.578 7.746-5.857 9.915-9.774z" fill="#682876"/>
		<path d="M241.24 222.15c7.696 13.435 22.164 22.497 38.76 22.497 16.698 0 31.249-9.177 38.906-22.756l-38.494-22.298z" fill="#682876"/>
		<path d="M414.986 137.488c-.003-5.103-1.094-9.611-3.3-13.48l-131.274 75.585 131.432 76.14c2.107-3.812 3.153-8.233 3.156-13.223 0 0 0-83.34-.014-125.022z" fill="#823085"/>
		<path d="M318.906 221.891c-7.657 13.579-22.208 22.756-38.906 22.756-16.596 0-31.064-9.062-38.76-22.497a44.444 44.444 0 0 1-5.888-22.151c0-24.658 19.99-44.647 44.648-44.647 16.49 0 30.88 8.949 38.615 22.247l39.024-22.473c-15.511-26.774-44.47-44.789-77.639-44.789-49.52 0-89.664 40.144-89.664 89.662 0 16.245 4.322 31.48 11.876 44.62 15.472 26.917 44.514 45.043 77.788 45.043 33.334 0 62.422-18.198 77.872-45.195z" fill="#fff"/>
		<g fill="#fff" stroke-width=".831">
			<path d="M359.348 178.8h8.869v42.954h-8.869zM379.025 178.8h8.867v42.954h-8.867z"/>
			<path d="M352.143 186.005h42.955v8.868h-42.955zM352.143 205.68h42.955v8.869h-42.955z"/>
		</g>
	</g>
</svg>